<svg width="255" height="234" viewBox="0 0 255 234" fill="none" xmlns="http://www.w3.org/2000/svg">
<path d="M107.097 224.673C114.65 225.583 122.131 226.348 129.75 226.529C139.882 226.771 150.082 226.175 160.188 225.502C164.733 225.198 169.255 224.611 173.799 224.322L172.425 224.875C171.977 225.054 171.525 225.04 171.05 225.04L169.374 225.164L170.374 225.474C171.349 225.791 172.273 225.66 173.256 225.867C174.745 226.182 176.625 225.921 178.162 225.895C181.353 225.841 184.543 225.834 187.734 225.837C197.455 225.849 207.207 225.685 216.924 225.954C224.78 226.17 232.687 226.735 240.516 227.403C243.875 227.69 247.328 227.967 250.634 228.617C251.981 228.882 253.243 229.058 254.389 229.84C254.272 230.212 254.339 230.31 253.955 230.509C251.688 231.685 247.639 231.605 245.091 231.803C238.598 232.308 232.102 232.665 225.59 232.835C211.226 233.208 196.787 232.934 182.416 232.926C168.837 232.921 155.258 233.097 141.681 233.062C126.726 233.023 111.773 232.766 96.8193 232.722C70.116 232.643 43.3967 233.394 16.7133 232.009C13.0573 231.819 9.39267 231.652 5.75 231.284C4.124 231.12 2.34133 231.072 0.789998 230.585L0.625336 230.288C4.99667 226.761 57.2807 226.423 65.8093 226.265C72.042 226.149 78.264 225.845 84.4987 225.78C89.1433 225.732 93.788 225.767 98.432 225.785C101.524 225.798 104.607 225.944 107.625 225.471C108.157 225.388 108.067 225.415 108.375 225.715L108.677 225.654C109.19 225.552 109.607 225.57 110.126 225.408C108.659 225.506 108.285 225.59 107.097 224.673Z" fill="#B8DDE3"/>
<path d="M107.097 224.673C99.948 223.515 92.918 222.076 86.1133 219.587C79.3773 217.121 73.0647 213.651 67.1813 209.634C43.8907 193.728 30.31 166.622 25.5973 139.808C21.7193 117.746 22.262 95.5034 28.0993 73.8232C30.084 66.4509 32.7347 58.7376 36.1593 51.863C38.9253 46.3104 42.5287 40.7565 46.196 35.7269C58.418 18.9665 75.6267 5.44593 96.956 2.00537C104.741 0.749592 112.692 0.979571 120.556 0.965278C129.784 0.948387 139.013 0.946439 148.241 0.937344C164.059 0.921752 179.877 0.915901 195.695 0.890565C202.075 0.88082 208.573 0.539105 214.938 0.706066C215.89 0.730752 216.093 0.770378 216.875 1.31609C217.603 3.42226 217.125 6.45614 217.11 8.72213C217.078 13.3782 217.059 18.0336 217.05 22.6897C217.012 41.284 216.985 59.8784 216.975 78.4728L148.187 78.4331C147.215 78.4312 145.634 78.5995 144.75 78.1733C143.737 77.6854 142.773 73.7654 142.125 72.6298C141.37 71.3058 140.427 70.1403 139.325 69.0762C135.814 65.6869 131.035 63.5632 126.046 63.6451C119.735 63.7484 113.81 67.3208 109.515 71.6098C98.6653 82.4415 95.1653 98.8167 95.35 113.499C95.5387 128.493 98.6073 145.032 110.168 155.893C114.805 160.25 121.623 164.313 128.292 164.148C135.641 163.965 142.012 160.129 143.517 152.791C144.079 150.05 143.122 145.601 145.291 143.525C145.709 143.124 146.193 142.732 146.798 142.666C149.071 142.417 151.619 142.67 153.917 142.677C159.286 142.695 164.655 142.707 170.023 142.719C185.458 142.752 200.948 142.451 216.375 142.781L216.875 143.319C217.391 146.083 217.056 149.367 217.05 152.199C217.039 157.829 217.021 163.459 217.014 169.09C217 179.893 216.977 190.695 216.981 201.498C216.982 204.8 216.986 208.103 216.982 211.405C216.98 213.207 217.187 215.265 216.673 217C215.329 218.19 211.201 217.75 209.375 217.8C207.463 217.853 205.537 218.025 203.625 218.01C202.918 218.005 201.623 217.715 200.984 217.925C199.511 218.407 198.112 219.207 196.627 219.709C192.435 221.126 187.935 222.046 183.572 222.809L173.799 224.322C169.255 224.611 164.733 225.198 160.188 225.502C150.082 226.175 139.882 226.771 129.75 226.529C122.131 226.348 114.65 225.583 107.097 224.673Z" fill="#A41019"/>
<path d="M163.063 7.51702C167.513 7.04927 172.363 7.40593 176.851 7.40203C188.168 7.39229 199.569 7.69503 210.875 7.29159L211.191 69.2185C210.343 69.1808 209.394 69.2243 208.573 69.0177L208.239 7.58134L163.063 7.51702Z" fill="#CA3A31"/>
<path d="M163.063 7.51701L208.239 7.58132L208.573 69.0177L151.549 69.0632C151.567 63.8146 149.769 60.3279 146.338 56.4112L146.827 7.46179L163.063 7.51701Z" fill="#FF867E"/>
<path d="M192.729 50.958C193.196 51.3517 193.252 51.2367 193.305 51.8896C193.373 52.7186 193.246 53.3299 192.657 53.9555C190.061 56.7159 185.905 58.199 182.137 58.2426L179.349 58.0996C179.043 57.3025 178.731 56.508 178.155 55.8544L177.874 55.5452L178.201 54.9112L178.454 54.9599C184.357 55.9298 188.052 54.2842 192.729 50.958Z" fill="#CA3A31"/>
<path d="M179.349 58.0996C176.591 58.1679 172.471 58.2068 170.14 56.6464L169.833 56.4372C168.289 55.4023 166.782 53.645 166.173 51.9117C165.442 49.8309 165.593 46.3611 166.582 44.3855L167.201 44.2906C168.645 48.3152 171.735 52.0813 175.735 53.9529L178.201 54.9112L177.874 55.5452L178.155 55.8544C178.731 56.508 179.043 57.3025 179.349 58.0996Z" fill="url(#paint0_linear_2_52)"/>
<path d="M167.201 44.2906C166.769 42.3501 166.492 40.6188 166.875 38.6354L166.954 38.2469C167.623 34.8304 169.697 31.3366 172.616 29.3057C175.849 27.056 179.823 26.1725 183.735 26.8617C188.057 27.6244 190.862 30.2601 193.256 33.6604C190.955 34.2106 190.267 34.8063 188.683 36.4656L188.023 36.2759L187.72 36.7456L187.399 36.6962C184.387 36.2583 181.056 36.0628 178.458 37.8591C177.503 38.5191 175.997 39.9964 175.625 41.0645C175.213 42.2494 175.463 42.7497 174.475 43.7306C174.809 45.6244 176.365 47.2673 177.953 48.3341C179.883 49.6314 181.913 50.1499 184.258 49.673C186.148 49.2891 187.443 48.145 188.698 46.8022L192.973 50.4279C192.792 50.9002 192.904 50.7397 192.729 50.958C188.052 54.2843 184.357 55.9298 178.454 54.9599L178.201 54.9112L175.735 53.9529C171.735 52.0813 168.645 48.3152 167.201 44.2906Z" fill="#FDFCFB"/>
<path d="M174.475 43.7306C174.313 42.7412 174.219 41.6128 174.301 40.6103C174.472 38.4925 175.809 36.3863 177.497 35.0798C179.199 33.7636 180.837 33.2374 183.008 33.4785C185.257 33.7286 186.649 34.5712 188.023 36.2759L187.72 36.7456L187.399 36.6962C184.387 36.2583 181.056 36.0628 178.458 37.8591C177.503 38.5191 175.997 39.9964 175.625 41.0645C175.213 42.2494 175.463 42.7497 174.475 43.7306Z" fill="#E65F3A"/>
<path d="M148.715 167.579C150.107 165.081 151.314 162.655 151.987 159.872C152.876 156.201 152.724 152.35 152.655 148.607L210.021 148.639L210.067 210.762L153.584 211.028L145.644 211.013L148.715 167.579Z" fill="#FF867E"/>
<path d="M198.983 170.779L199.742 171.028L199.873 171.629C199.939 171.961 199.981 172.211 200.124 172.524C200.326 172.966 200.201 172.622 200.373 173.212L199.875 173.819C199.903 175.22 199.397 175.596 198.803 176.752C198.317 177.698 197.556 178.453 197.061 179.417L196.873 179.79L196.499 180.52C195.87 182.074 194.989 183.417 194.249 184.905C193.595 186.219 192.349 187.285 191.842 188.545C191.414 189.606 190.809 190.63 190.121 191.553C188.729 193.418 186.051 196.171 183.617 196.439C180.991 196.729 178.14 195.955 176.127 194.285L176.625 194.164L176.127 193.555C175.117 192.697 174.665 192.067 173.877 190.997L173.501 190.508C173.161 189.819 172.015 188.607 171.377 188.073C170.771 187.566 170.069 187.147 169.751 186.366L169.627 186.002C169.385 185.629 169.035 185.482 168.807 185.035C168.6 184.632 168.354 184.317 168.127 183.932C167.882 183.515 167.774 183.217 167.447 182.834C167.02 182.335 167.225 182.619 166.862 182.089C166.428 181.455 165.877 180.607 165.25 180.153C163.137 178.625 161.637 174.527 160.639 172.214C160.816 170.979 160.664 168.818 161.311 167.869L161.605 168.545C160.967 169.975 161.895 171.788 162.478 173.197C163.803 176.399 166.29 179.385 168.351 182.163C169.809 184.127 170.681 186.416 173 187.586L173.125 187.826C173.675 188.723 174.553 189.341 175.123 190.266C176.351 192.259 178.581 194.474 180.965 194.994C182.343 195.294 183.383 194.951 184.531 194.19C185.819 193.337 187.138 192.309 188.064 191.086C189.357 189.378 190.12 187.189 191.289 185.367C193.063 182.603 194.92 179.841 196.751 177.11C197.273 176.332 197.933 175.604 198.4 174.796C198.843 174.029 199.078 173.246 199.228 172.383C199.349 171.69 199.209 171.429 198.983 170.779Z" fill="#FC7661"/>
<path d="M198.983 170.779C199.209 171.429 199.349 171.69 199.228 172.383C199.078 173.246 198.843 174.029 198.4 174.796C197.933 175.604 197.273 176.332 196.751 177.11C194.92 179.841 193.063 182.603 191.289 185.367C190.12 187.189 189.357 189.378 188.064 191.086C187.138 192.309 185.819 193.337 184.531 194.19C183.383 194.951 182.343 195.294 180.965 194.994C178.581 194.474 176.351 192.259 175.123 190.266C174.553 189.341 173.675 188.723 173.125 187.826L173 187.586C170.681 186.416 169.809 184.127 168.351 182.163C166.29 179.385 163.803 176.399 162.478 173.197C161.895 171.788 160.967 169.975 161.605 168.545L162.325 169.646C164.289 172.276 166.25 174.907 168.181 177.56C168.666 178.228 169.73 179.355 169.917 180.082C172.04 182.402 173.721 185.261 175.623 187.773C176.665 189.15 177.763 190.666 179.418 191.366C180.738 191.566 182.179 191.531 183.512 191.436L184.097 191.523L184.5 191.119L185.375 191.121L186.47 189.893L190.625 182.594L190.413 182.068C190.743 181.07 191.817 179.786 192.405 178.864C194.295 175.899 196.161 172.917 198.181 170.034L198.784 170.761L198.983 170.779Z" fill="#E65F3A"/>
<path d="M162.325 169.646C164.289 172.276 166.25 174.907 168.181 177.56C168.666 178.228 169.73 179.355 169.917 180.082L169.639 180.325L169.127 179.79L168.813 179.424L168.625 179.91C166.316 178.02 164.081 174.479 162.654 171.872C162.222 171.082 162.057 170.492 162.325 169.646Z" fill="#CA3A31"/>
<path d="M186.47 189.893L187.399 190.034C186.415 191.489 184.903 193.465 183.052 193.837C181.957 194.058 180.844 193.836 179.944 193.194C179.333 192.759 178.999 192.413 178.732 191.727C179.092 191.37 178.87 191.502 179.418 191.366C180.738 191.566 182.179 191.531 183.512 191.436L184.097 191.523L184.5 191.119L185.375 191.121L186.47 189.893Z" fill="#CA3A31"/>
<path d="M198.181 170.034L198.784 170.761C198.741 171.706 198.576 172.556 198.176 173.427C197.483 174.937 196.366 176.229 195.435 177.598C193.887 179.873 192.355 182.161 190.81 184.439C189.583 186.248 188.595 188.202 187.399 190.034L186.47 189.893L190.625 182.594L190.413 182.068C190.743 181.07 191.817 179.786 192.405 178.864C194.295 175.899 196.161 172.917 198.181 170.034Z" fill="#D65329"/>
<path d="M161.311 167.869C162.143 166.414 163.099 165.216 164.839 164.791C166.059 164.494 167.535 164.336 168.642 165.023C170.477 166.163 171.851 168.568 173.035 170.298C175.047 173.238 176.993 176.223 178.996 179.17C179.543 179.977 180.215 181.334 180.983 181.898C183.075 178.178 185.047 174.39 187.162 170.683C188.403 168.509 189.643 166.206 191.271 164.281C193.936 164.628 197.189 165.104 198.975 167.244C199.201 168.429 198.778 169.029 198.181 170.034C196.161 172.917 194.295 175.899 192.405 178.864C191.817 179.786 190.743 181.07 190.413 182.068L190.625 182.594L186.47 189.893L185.375 191.121L184.5 191.119L184.097 191.523L183.512 191.436C182.179 191.531 180.738 191.566 179.418 191.366C177.763 190.666 176.665 189.15 175.623 187.773C173.721 185.261 172.04 182.402 169.917 180.082C169.73 179.355 168.666 178.228 168.181 177.56C166.25 174.907 164.289 172.276 162.325 169.646L161.605 168.545L161.311 167.869Z" fill="#FDFCFB"/>
<path d="M190.413 182.068L190.625 182.594L186.47 189.894L185.375 191.121L184.5 191.119L184.097 191.523L183.512 191.436C186.193 188.745 188.257 185.175 190.413 182.068Z" fill="#E65F3A"/>
<path d="M153.584 211.028L113.137 210.575C89.8807 208.865 68.4147 197.435 53.3667 180.253C49.224 175.522 45.2353 170.149 42.2273 164.674C34.3953 150.417 30.3947 132.821 29.776 116.727C29.5467 110.762 29.92 104.825 30.414 98.8823C32.348 75.6227 41.65 51.3855 56.9973 33.3745C59.8873 29.9827 62.9033 26.5882 66.368 23.7388C75.652 16.1028 88.2513 10.7841 100.217 8.93975C109.176 7.55859 118.395 7.62096 127.441 7.52546C133.787 7.45854 140.521 6.94337 146.827 7.4618L146.338 56.4112C142.702 53.4689 139.433 51.288 134.913 49.7854C127.871 47.444 120.259 48.4874 113.713 51.7174C100.777 58.0996 93.3827 70.2027 89.116 83.2925C82.534 103.482 83.0587 128.178 93.152 147.199C94.516 149.77 96.2387 152.168 97.9487 154.528C99.6993 156.944 101.537 159.575 103.609 161.734C108.156 166.473 115.265 170.572 121.625 172.486L125.713 173.362C132.245 174.488 140.278 173.765 145.838 169.981C146.895 169.262 147.811 168.472 148.715 167.579L145.644 211.013L153.584 211.028Z" fill="#CA3A31"/>
<path d="M80.77 17.0812C84.612 16.7733 88.4827 17.0578 91.9453 18.8645C96.4287 21.2039 100.241 26.0672 101.735 30.7629C102.995 34.7212 102.798 39.5807 100.699 43.2408C98.5013 47.0731 94.4687 48.9993 90.2967 50.1115C86.256 50.7742 82.6487 50.081 79.1487 47.956C74.4667 45.1131 70.2607 39.9971 69.064 34.6888C68.1454 30.6128 68.8907 26.1971 71.162 22.6981C73.416 19.2264 76.834 17.9342 80.77 17.0812Z" fill="#A41019"/>
<path d="M80.6687 17.8627C82.848 17.6925 85.0527 17.7055 87.188 18.2162C89.9747 18.8821 92.41 20.6082 93.8747 23.0164C95.6033 25.8593 96.0327 30.3802 95.1867 33.5525L95.0627 33.9832C94.7333 35.1585 94.2373 36.2603 93.5653 37.2887C91.4867 40.4681 88.3787 41.9779 84.7267 42.8114C81.5307 43.4532 77.91 43.0699 75.1253 41.3341C72.4953 39.695 70.508 36.7852 69.906 33.8143C69.166 30.1659 69.7633 26.5246 71.9253 23.4283C74.0187 20.4302 77.0527 18.5468 80.6687 17.8627Z" fill="#FDFCFB"/>
<path d="M73.6854 146.746L73.7654 146.719C77.3514 146.286 81.1833 147.096 84.1253 149.164C85.7153 150.282 86.9567 151.797 88.2373 153.229C91.2733 156.624 93.81 159.262 94.5634 163.911C95.1834 167.738 94.0547 172.182 91.6407 175.283C89.1874 178.436 85.8227 179.76 81.922 180.327C79.262 180.318 76.8327 179.801 74.3907 178.774C69.1714 176.578 63.192 172.027 61.186 166.709C59.6827 162.724 59.378 158.294 61.3687 154.407C62.8514 151.511 66.1 148.61 69.3033 147.66L69.6253 147.569C70.9947 147.166 72.2707 146.926 73.6854 146.746Z" fill="#A41019"/>
<path d="M73.8767 147.941C77.1093 147.82 80.028 148.062 82.788 149.852C85.3447 151.51 86.8787 154.32 87.4167 157.212C88.146 161.128 87.0327 166.027 84.5907 169.201C82.2707 172.217 78.8307 173.364 75.164 173.892C72.1507 173.925 69.5507 173.49 66.9933 171.786C64.1073 169.863 62.2013 166.72 61.616 163.38C61.0287 160.034 61.428 156.701 63.524 153.898C66.1673 150.364 69.492 148.647 73.8767 147.941Z" fill="#FDFCFB"/>
<defs>
<linearGradient id="paint0_linear_2_52" x1="176.875" y1="54.9345" x2="170.83" y2="58.342" gradientUnits="userSpaceOnUse">
<stop stop-color="#E65D33"/>
<stop offset="1" stop-color="#FF7C64"/>
</linearGradient>
</defs>
</svg>
